<svg><line x1="632" y1="469" x2="793" y2="469"></line><line x1="632" y1="489" x2="793" y2="489"></line><rect x="632" y="468" width="161" height="22" fill="white" stroke="black"></rect><text x="637" y="479" dominant-baseline="middle">unpack TAG 640 480 1280 1</text><circle cx="712.5" cy="468" r="5" fill="black"></circle><circle cx="658.8333333333334" cy="490" r="5" fill="black"></circle><circle cx="685.6666666666666" cy="490" r="5" fill="black"></circle><circle cx="712.5" cy="490" r="5" fill="black"></circle><circle cx="739.3333333333334" cy="490" r="5" fill="black"></circle><circle cx="766.1666666666666" cy="490" r="5" fill="black"></circle><line x1="722" y1="602" x2="793" y2="602"></line><line x1="722" y1="622" x2="793" y2="622"></line><rect x="722" y="601" width="71" height="22" fill="white" stroke="black"></rect><text x="727" y="612" dominant-baseline="middle">minimum 1.</text><circle cx="745.6666666666666" cy="601" r="5" fill="black"></circle><circle cx="769.3333333333334" cy="601" r="5" fill="black"></circle><circle cx="745.6666666666666" cy="623" r="5" fill="black"></circle><circle cx="769.3333333333334" cy="623" r="5" fill="black"></circle><line x1="722" y1="576" x2="751.5" y2="576"></line><line x1="722" y1="596" x2="751.5" y2="596"></line><rect x="722" y="575" width="29.5" height="22" fill="white" stroke="black"></rect><text x="727" y="586" dominant-baseline="middle">/ 1.</text><circle cx="731.8333333333334" cy="575" r="5" fill="black"></circle><circle cx="741.6666666666666" cy="575" r="5" fill="black"></circle><circle cx="736.75" cy="597" r="5" fill="black"></circle><line x1="722" y1="629" x2="796" y2="629"></line><line x1="722" y1="649" x2="796" y2="649"></line><rect x="722" y="628" width="74" height="22" fill="white" stroke="black"></rect><text x="727" y="639" dominant-baseline="middle">maximum 0.</text><circle cx="746.6666666666666" cy="628" r="5" fill="black"></circle><circle cx="771.3333333333334" cy="628" r="5" fill="black"></circle><circle cx="746.6666666666666" cy="650" r="5" fill="black"></circle><circle cx="771.3333333333334" cy="650" r="5" fill="black"></circle><line x1="722" y1="547" x2="751.5" y2="547"></line><line x1="722" y1="567" x2="751.5" y2="567"></line><rect x="722" y="546" width="29.5" height="22" fill="white" stroke="black"></rect><text x="727" y="557" dominant-baseline="middle">f</text><circle cx="731.8333333333334" cy="546" r="5" fill="black"></circle><circle cx="741.6666666666666" cy="546" r="5" fill="black"></circle><circle cx="736.75" cy="568" r="5" fill="black"></circle><line x1="722" y1="655" x2="762" y2="655"></line><line x1="722" y1="675" x2="762" y2="675"></line><rect x="722" y="654" width="40" height="22" fill="white" stroke="black"></rect><text x="727" y="665" dominant-baseline="middle">* 127.</text><circle cx="735.3333333333334" cy="654" r="5" fill="black"></circle><circle cx="748.6666666666666" cy="654" r="5" fill="black"></circle><circle cx="742" cy="676" r="5" fill="black"></circle><line x1="770" y1="506" x2="820" y2="506"></line><line x1="770" y1="584" x2="820" y2="584"></line><rect x="770" y="505" width="50" height="80" fill="white" stroke="black"></rect><circle cx="795" cy="505" r="5" fill="black"></circle><circle cx="786.6666666666666" cy="585" r="5" fill="black"></circle><circle cx="803.3333333333334" cy="585" r="5" fill="black"></circle><line x1="191" y1="525" x2="388" y2="525"></line><line x1="191" y1="545" x2="388" y2="545"></line><rect x="191" y="524" width="197" height="22" fill="white" stroke="black"></rect><text x="196" y="535" dominant-baseline="middle">makenote 100 100 @repeatmode 1</text><circle cx="240.25" cy="524" r="5" fill="black"></circle><circle cx="289.5" cy="524" r="5" fill="black"></circle><circle cx="338.75" cy="524" r="5" fill="black"></circle><circle cx="256.6666666666667" cy="546" r="5" fill="black"></circle><circle cx="322.33333333333337" cy="546" r="5" fill="black"></circle><rect x="113" y="498" width="50" height="22" fill="white" stroke="black" rx="5" ry="5"></rect><circle cx="129.66666666666666" cy="498" r="5" fill="black"></circle><circle cx="146.33333333333334" cy="498" r="5" fill="black"></circle><circle cx="138" cy="520" r="5" fill="black"></circle><rect x="20" y="479" width="50" height="77" fill="white" stroke="black" rx="5" ry="5"></rect><text x="25" y="517.5" dominant-baseline="middle">node circle 3.2 3.2 501 1 13 2 0</text><circle cx="36.66666666666667" cy="479" r="5" fill="black"></circle><circle cx="53.333333333333336" cy="479" r="5" fill="black"></circle><circle cx="45" cy="556" r="5" fill="black"></circle><line x1="67" y1="448" x2="150" y2="448"></line><line x1="67" y1="468" x2="150" y2="468"></line><rect x="67" y="447" width="83" height="22" fill="white" stroke="black"></rect><text x="72" y="458" dominant-baseline="middle">prepend node</text><circle cx="108.5" cy="447" r="5" fill="black"></circle><circle cx="108.5" cy="469" r="5" fill="black"></circle><rect x="275" y="411" width="46" height="22" fill="white" stroke="black" rx="5" ry="5"></rect><text x="280" y="422" dominant-baseline="middle">node A</text><circle cx="290.3333333333333" cy="411" r="5" fill="black"></circle><circle cx="305.6666666666667" cy="411" r="5" fill="black"></circle><circle cx="298" cy="433" r="5" fill="black"></circle><line x1="592" y1="383" x2="651" y2="383"></line><line x1="592" y1="403" x2="651" y2="403"></line><rect x="592" y="382" width="59" height="22" fill="white" stroke="black"></rect><text x="597" y="393" dominant-baseline="middle">route text</text><circle cx="611.6666666666666" cy="382" r="5" fill="black"></circle><circle cx="631.3333333333334" cy="382" r="5" fill="black"></circle><circle cx="611.6666666666666" cy="404" r="5" fill="black"></circle><circle cx="631.3333333333334" cy="404" r="5" fill="black"></circle><line x1="505" y1="383" x2="564" y2="383"></line><line x1="505" y1="403" x2="564" y2="403"></line><rect x="505" y="382" width="59" height="22" fill="white" stroke="black"></rect><text x="510" y="393" dominant-baseline="middle">route text</text><circle cx="524.6666666666666" cy="382" r="5" fill="black"></circle><circle cx="544.3333333333334" cy="382" r="5" fill="black"></circle><circle cx="524.6666666666666" cy="404" r="5" fill="black"></circle><circle cx="544.3333333333334" cy="404" r="5" fill="black"></circle><line x1="416" y1="383" x2="475" y2="383"></line><line x1="416" y1="403" x2="475" y2="403"></line><rect x="416" y="382" width="59" height="22" fill="white" stroke="black"></rect><text x="421" y="393" dominant-baseline="middle">route text</text><circle cx="435.6666666666667" cy="382" r="5" fill="black"></circle><circle cx="455.3333333333333" cy="382" r="5" fill="black"></circle><circle cx="435.6666666666667" cy="404" r="5" fill="black"></circle><circle cx="455.3333333333333" cy="404" r="5" fill="black"></circle><line x1="338.5" y1="383" x2="397.5" y2="383"></line><line x1="338.5" y1="403" x2="397.5" y2="403"></line><rect x="338.5" y="382" width="59" height="22" fill="white" stroke="black"></rect><text x="343.5" y="393" dominant-baseline="middle">route text</text><circle cx="358.1666666666667" cy="382" r="5" fill="black"></circle><circle cx="377.8333333333333" cy="382" r="5" fill="black"></circle><circle cx="358.1666666666667" cy="404" r="5" fill="black"></circle><circle cx="377.8333333333333" cy="404" r="5" fill="black"></circle><line x1="592" y1="282" x2="651" y2="282"></line><line x1="592" y1="302" x2="651" y2="302"></line><rect x="592" y="281" width="59" height="22" fill="white" stroke="black"></rect><text x="597" y="292" dominant-baseline="middle">route text</text><circle cx="611.6666666666666" cy="281" r="5" fill="black"></circle><circle cx="631.3333333333334" cy="281" r="5" fill="black"></circle><circle cx="611.6666666666666" cy="303" r="5" fill="black"></circle><circle cx="631.3333333333334" cy="303" r="5" fill="black"></circle><line x1="505" y1="282" x2="564" y2="282"></line><line x1="505" y1="302" x2="564" y2="302"></line><rect x="505" y="281" width="59" height="22" fill="white" stroke="black"></rect><text x="510" y="292" dominant-baseline="middle">route text</text><circle cx="524.6666666666666" cy="281" r="5" fill="black"></circle><circle cx="544.3333333333334" cy="281" r="5" fill="black"></circle><circle cx="524.6666666666666" cy="303" r="5" fill="black"></circle><circle cx="544.3333333333334" cy="303" r="5" fill="black"></circle><line x1="416" y1="282" x2="475" y2="282"></line><line x1="416" y1="302" x2="475" y2="302"></line><rect x="416" y="281" width="59" height="22" fill="white" stroke="black"></rect><text x="421" y="292" dominant-baseline="middle">route text</text><circle cx="435.6666666666667" cy="281" r="5" fill="black"></circle><circle cx="455.3333333333333" cy="281" r="5" fill="black"></circle><circle cx="435.6666666666667" cy="303" r="5" fill="black"></circle><circle cx="455.3333333333333" cy="303" r="5" fill="black"></circle><line x1="338.5" y1="282" x2="397.5" y2="282"></line><line x1="338.5" y1="302" x2="397.5" y2="302"></line><rect x="338.5" y="281" width="59" height="22" fill="white" stroke="black"></rect><text x="343.5" y="292" dominant-baseline="middle">route text</text><circle cx="358.1666666666667" cy="281" r="5" fill="black"></circle><circle cx="377.8333333333333" cy="281" r="5" fill="black"></circle><circle cx="358.1666666666667" cy="303" r="5" fill="black"></circle><circle cx="377.8333333333333" cy="303" r="5" fill="black"></circle><line x1="592" y1="169" x2="651" y2="169"></line><line x1="592" y1="189" x2="651" y2="189"></line><rect x="592" y="168" width="59" height="22" fill="white" stroke="black"></rect><text x="597" y="179" dominant-baseline="middle">route text</text><circle cx="611.6666666666666" cy="168" r="5" fill="black"></circle><circle cx="631.3333333333334" cy="168" r="5" fill="black"></circle><circle cx="611.6666666666666" cy="190" r="5" fill="black"></circle><circle cx="631.3333333333334" cy="190" r="5" fill="black"></circle><line x1="505" y1="169" x2="564" y2="169"></line><line x1="505" y1="189" x2="564" y2="189"></line><rect x="505" y="168" width="59" height="22" fill="white" stroke="black"></rect><text x="510" y="179" dominant-baseline="middle">route text</text><circle cx="524.6666666666666" cy="168" r="5" fill="black"></circle><circle cx="544.3333333333334" cy="168" r="5" fill="black"></circle><circle cx="524.6666666666666" cy="190" r="5" fill="black"></circle><circle cx="544.3333333333334" cy="190" r="5" fill="black"></circle><line x1="416" y1="169" x2="475" y2="169"></line><line x1="416" y1="189" x2="475" y2="189"></line><rect x="416" y="168" width="59" height="22" fill="white" stroke="black"></rect><text x="421" y="179" dominant-baseline="middle">route text</text><circle cx="435.6666666666667" cy="168" r="5" fill="black"></circle><circle cx="455.3333333333333" cy="168" r="5" fill="black"></circle><circle cx="435.6666666666667" cy="190" r="5" fill="black"></circle><circle cx="455.3333333333333" cy="190" r="5" fill="black"></circle><line x1="338.5" y1="169" x2="397.5" y2="169"></line><line x1="338.5" y1="189" x2="397.5" y2="189"></line><rect x="338.5" y="168" width="59" height="22" fill="white" stroke="black"></rect><text x="343.5" y="179" dominant-baseline="middle">route text</text><circle cx="358.1666666666667" cy="168" r="5" fill="black"></circle><circle cx="377.8333333333333" cy="168" r="5" fill="black"></circle><circle cx="358.1666666666667" cy="190" r="5" fill="black"></circle><circle cx="377.8333333333333" cy="190" r="5" fill="black"></circle><line x1="593" y1="51.5" x2="652" y2="51.5"></line><line x1="593" y1="71.5" x2="652" y2="71.5"></line><rect x="593" y="50.5" width="59" height="22" fill="white" stroke="black"></rect><text x="598" y="61.5" dominant-baseline="middle">route text</text><circle cx="612.6666666666666" cy="50.5" r="5" fill="black"></circle><circle cx="632.3333333333334" cy="50.5" r="5" fill="black"></circle><circle cx="612.6666666666666" cy="72.5" r="5" fill="black"></circle><circle cx="632.3333333333334" cy="72.5" r="5" fill="black"></circle><line x1="506" y1="51.5" x2="565" y2="51.5"></line><line x1="506" y1="71.5" x2="565" y2="71.5"></line><rect x="506" y="50.5" width="59" height="22" fill="white" stroke="black"></rect><text x="511" y="61.5" dominant-baseline="middle">route text</text><circle cx="525.6666666666666" cy="50.5" r="5" fill="black"></circle><circle cx="545.3333333333334" cy="50.5" r="5" fill="black"></circle><circle cx="525.6666666666666" cy="72.5" r="5" fill="black"></circle><circle cx="545.3333333333334" cy="72.5" r="5" fill="black"></circle><line x1="417" y1="51.5" x2="476" y2="51.5"></line><line x1="417" y1="71.5" x2="476" y2="71.5"></line><rect x="417" y="50.5" width="59" height="22" fill="white" stroke="black"></rect><text x="422" y="61.5" dominant-baseline="middle">route text</text><circle cx="436.6666666666667" cy="50.5" r="5" fill="black"></circle><circle cx="456.3333333333333" cy="50.5" r="5" fill="black"></circle><circle cx="436.6666666666667" cy="72.5" r="5" fill="black"></circle><circle cx="456.3333333333333" cy="72.5" r="5" fill="black"></circle><line x1="339.5" y1="51.5" x2="398.5" y2="51.5"></line><line x1="339.5" y1="71.5" x2="398.5" y2="71.5"></line><rect x="339.5" y="50.5" width="59" height="22" fill="white" stroke="black"></rect><text x="344.5" y="61.5" dominant-baseline="middle">route text</text><circle cx="359.1666666666667" cy="50.5" r="5" fill="black"></circle><circle cx="378.8333333333333" cy="50.5" r="5" fill="black"></circle><circle cx="359.1666666666667" cy="72.5" r="5" fill="black"></circle><circle cx="378.8333333333333" cy="72.5" r="5" fill="black"></circle><rect x="46" y="614" width="470" height="22" fill="white" stroke="black" rx="5" ry="5"></rect><text x="51" y="625" dominant-baseline="middle">"C:/Users/aklas/Documents/Ableton/User Library/MyM4L/WebSonificator/patchers/"</text><circle cx="202.66666666666666" cy="614" r="5" fill="black"></circle><circle cx="359.3333333333333" cy="614" r="5" fill="black"></circle><circle cx="281" cy="636" r="5" fill="black"></circle><rect x="46" y="558" width="32" height="22" fill="white" stroke="black" rx="5" ry="5"></rect><text x="51" y="569" dominant-baseline="middle">path</text><circle cx="56.666666666666664" cy="558" r="5" fill="black"></circle><circle cx="67.33333333333333" cy="558" r="5" fill="black"></circle><circle cx="62" cy="580" r="5" fill="black"></circle><line x1="46" y1="590" x2="113" y2="590"></line><line x1="46" y1="610" x2="113" y2="610"></line><rect x="46" y="589" width="67" height="22" fill="white" stroke="black"></rect><text x="51" y="600" dominant-baseline="middle">thispatcher</text><circle cx="79.5" cy="589" r="5" fill="black"></circle><circle cx="68.33333333333333" cy="611" r="5" fill="black"></circle><circle cx="90.66666666666666" cy="611" r="5" fill="black"></circle><line x1="190.5" y1="490" x2="294.5" y2="490"></line><line x1="190.5" y1="510" x2="294.5" y2="510"></line><rect x="190.5" y="489" width="104" height="22" fill="white" stroke="black"></rect><text x="195.5" y="500" dominant-baseline="middle">js drum-mapper.js</text><circle cx="242.5" cy="489" r="5" fill="black"></circle><circle cx="242.5" cy="511" r="5" fill="black"></circle><line x1="190.5" y1="453" x2="262.5" y2="453"></line><line x1="190.5" y1="473" x2="262.5" y2="473"></line><rect x="190.5" y="452" width="72" height="22" fill="white" stroke="black"></rect><text x="195.5" y="463" dominant-baseline="middle">prepend set</text><circle cx="226.5" cy="452" r="5" fill="black"></circle><circle cx="226.5" cy="474" r="5" fill="black"></circle><line x1="595" y1="79" x2="664" y2="79"></line><line x1="595" y1="99" x2="664" y2="99"></line><rect x="595" y="78" width="69" height="22" fill="white" stroke="black"></rect><text x="600" y="89" dominant-baseline="middle">prepend 15</text><circle cx="629.5" cy="78" r="5" fill="black"></circle><circle cx="629.5" cy="100" r="5" fill="black"></circle><line x1="506" y1="79" x2="575" y2="79"></line><line x1="506" y1="99" x2="575" y2="99"></line><rect x="506" y="78" width="69" height="22" fill="white" stroke="black"></rect><text x="511" y="89" dominant-baseline="middle">prepend 14</text><circle cx="540.5" cy="78" r="5" fill="black"></circle><circle cx="540.5" cy="100" r="5" fill="black"></circle><line x1="417" y1="79" x2="486" y2="79"></line><line x1="417" y1="99" x2="486" y2="99"></line><rect x="417" y="78" width="69" height="22" fill="white" stroke="black"></rect><text x="422" y="89" dominant-baseline="middle">prepend 13</text><circle cx="451.5" cy="78" r="5" fill="black"></circle><circle cx="451.5" cy="100" r="5" fill="black"></circle><line x1="339.5" y1="79" x2="408.5" y2="79"></line><line x1="339.5" y1="99" x2="408.5" y2="99"></line><rect x="339.5" y="78" width="69" height="22" fill="white" stroke="black"></rect><text x="344.5" y="89" dominant-baseline="middle">prepend 12</text><circle cx="374" cy="78" r="5" fill="black"></circle><circle cx="374" cy="100" r="5" fill="black"></circle><line x1="592" y1="198" x2="660" y2="198"></line><line x1="592" y1="218" x2="660" y2="218"></line><rect x="592" y="197" width="68" height="22" fill="white" stroke="black"></rect><text x="597" y="208" dominant-baseline="middle">prepend 11</text><circle cx="626" cy="197" r="5" fill="black"></circle><circle cx="626" cy="219" r="5" fill="black"></circle><line x1="503" y1="198" x2="572" y2="198"></line><line x1="503" y1="218" x2="572" y2="218"></line><rect x="503" y="197" width="69" height="22" fill="white" stroke="black"></rect><text x="508" y="208" dominant-baseline="middle">prepend 10</text><circle cx="537.5" cy="197" r="5" fill="black"></circle><circle cx="537.5" cy="219" r="5" fill="black"></circle><line x1="414" y1="198" x2="477" y2="198"></line><line x1="414" y1="218" x2="477" y2="218"></line><rect x="414" y="197" width="63" height="22" fill="white" stroke="black"></rect><text x="419" y="208" dominant-baseline="middle">prepend 9</text><circle cx="445.5" cy="197" r="5" fill="black"></circle><circle cx="445.5" cy="219" r="5" fill="black"></circle><line x1="336.5" y1="198" x2="399.5" y2="198"></line><line x1="336.5" y1="218" x2="399.5" y2="218"></line><rect x="336.5" y="197" width="63" height="22" fill="white" stroke="black"></rect><text x="341.5" y="208" dominant-baseline="middle">prepend 8</text><circle cx="368" cy="197" r="5" fill="black"></circle><circle cx="368" cy="219" r="5" fill="black"></circle><line x1="599.5" y1="309" x2="662.5" y2="309"></line><line x1="599.5" y1="329" x2="662.5" y2="329"></line><rect x="599.5" y="308" width="63" height="22" fill="white" stroke="black"></rect><text x="604.5" y="319" dominant-baseline="middle">prepend 7</text><circle cx="631" cy="308" r="5" fill="black"></circle><circle cx="631" cy="330" r="5" fill="black"></circle><line x1="510.5" y1="309" x2="573.5" y2="309"></line><line x1="510.5" y1="329" x2="573.5" y2="329"></line><rect x="510.5" y="308" width="63" height="22" fill="white" stroke="black"></rect><text x="515.5" y="319" dominant-baseline="middle">prepend 6</text><circle cx="542" cy="308" r="5" fill="black"></circle><circle cx="542" cy="330" r="5" fill="black"></circle><line x1="421.5" y1="309" x2="484.5" y2="309"></line><line x1="421.5" y1="329" x2="484.5" y2="329"></line><rect x="421.5" y="308" width="63" height="22" fill="white" stroke="black"></rect><text x="426.5" y="319" dominant-baseline="middle">prepend 5</text><circle cx="453" cy="308" r="5" fill="black"></circle><circle cx="453" cy="330" r="5" fill="black"></circle><line x1="344" y1="309" x2="407" y2="309"></line><line x1="344" y1="329" x2="407" y2="329"></line><rect x="344" y="308" width="63" height="22" fill="white" stroke="black"></rect><text x="349" y="319" dominant-baseline="middle">prepend 4</text><circle cx="375.5" cy="308" r="5" fill="black"></circle><circle cx="375.5" cy="330" r="5" fill="black"></circle><line x1="589" y1="412" x2="652" y2="412"></line><line x1="589" y1="432" x2="652" y2="432"></line><rect x="589" y="411" width="63" height="22" fill="white" stroke="black"></rect><text x="594" y="422" dominant-baseline="middle">prepend 3</text><circle cx="620.5" cy="411" r="5" fill="black"></circle><circle cx="620.5" cy="433" r="5" fill="black"></circle><line x1="505" y1="412" x2="568" y2="412"></line><line x1="505" y1="432" x2="568" y2="432"></line><rect x="505" y="411" width="63" height="22" fill="white" stroke="black"></rect><text x="510" y="422" dominant-baseline="middle">prepend 2</text><circle cx="536.5" cy="411" r="5" fill="black"></circle><circle cx="536.5" cy="433" r="5" fill="black"></circle><line x1="416" y1="412" x2="479" y2="412"></line><line x1="416" y1="432" x2="479" y2="432"></line><rect x="416" y="411" width="63" height="22" fill="white" stroke="black"></rect><text x="421" y="422" dominant-baseline="middle">prepend 1</text><circle cx="447.5" cy="411" r="5" fill="black"></circle><circle cx="447.5" cy="433" r="5" fill="black"></circle><line x1="338.5" y1="412" x2="401.5" y2="412"></line><line x1="338.5" y1="432" x2="401.5" y2="432"></line><rect x="338.5" y="411" width="63" height="22" fill="white" stroke="black"></rect><text x="343.5" y="422" dominant-baseline="middle">prepend 0</text><circle cx="370" cy="411" r="5" fill="black"></circle><circle cx="370" cy="433" r="5" fill="black"></circle><line x1="593" y1="17" x2="651" y2="17"></line><line x1="593" y1="41.5" x2="651" y2="41.5"></line><rect x="593" y="16" width="58" height="26.5" fill="white" stroke="black"></rect><circle cx="622" cy="16" r="5" fill="black"></circle><circle cx="604.6" cy="42.5" r="5" fill="black"></circle><circle cx="616.2" cy="42.5" r="5" fill="black"></circle><circle cx="627.8" cy="42.5" r="5" fill="black"></circle><circle cx="639.4" cy="42.5" r="5" fill="black"></circle><line x1="513" y1="17" x2="571" y2="17"></line><line x1="513" y1="41.5" x2="571" y2="41.5"></line><rect x="513" y="16" width="58" height="26.5" fill="white" stroke="black"></rect><circle cx="542" cy="16" r="5" fill="black"></circle><circle cx="524.6" cy="42.5" r="5" fill="black"></circle><circle cx="536.2" cy="42.5" r="5" fill="black"></circle><circle cx="547.8" cy="42.5" r="5" fill="black"></circle><circle cx="559.4" cy="42.5" r="5" fill="black"></circle><line x1="420" y1="17" x2="478" y2="17"></line><line x1="420" y1="41.5" x2="478" y2="41.5"></line><rect x="420" y="16" width="58" height="26.5" fill="white" stroke="black"></rect><circle cx="449" cy="16" r="5" fill="black"></circle><circle cx="431.6" cy="42.5" r="5" fill="black"></circle><circle cx="443.2" cy="42.5" r="5" fill="black"></circle><circle cx="454.8" cy="42.5" r="5" fill="black"></circle><circle cx="466.4" cy="42.5" r="5" fill="black"></circle><line x1="339.5" y1="17" x2="397.5" y2="17"></line><line x1="339.5" y1="41.5" x2="397.5" y2="41.5"></line><rect x="339.5" y="16" width="58" height="26.5" fill="white" stroke="black"></rect><circle cx="368.5" cy="16" r="5" fill="black"></circle><circle cx="351.1" cy="42.5" r="5" fill="black"></circle><circle cx="362.7" cy="42.5" r="5" fill="black"></circle><circle cx="374.3" cy="42.5" r="5" fill="black"></circle><circle cx="385.9" cy="42.5" r="5" fill="black"></circle><line x1="594" y1="135" x2="652" y2="135"></line><line x1="594" y1="159.5" x2="652" y2="159.5"></line><rect x="594" y="134" width="58" height="26.5" fill="white" stroke="black"></rect><circle cx="623" cy="134" r="5" fill="black"></circle><circle cx="605.6" cy="160.5" r="5" fill="black"></circle><circle cx="617.2" cy="160.5" r="5" fill="black"></circle><circle cx="628.8" cy="160.5" r="5" fill="black"></circle><circle cx="640.4" cy="160.5" r="5" fill="black"></circle><line x1="505" y1="135" x2="563" y2="135"></line><line x1="505" y1="159.5" x2="563" y2="159.5"></line><rect x="505" y="134" width="58" height="26.5" fill="white" stroke="black"></rect><text x="510" y="147.25" dominant-baseline="middle">a</text><circle cx="534" cy="134" r="5" fill="black"></circle><circle cx="516.6" cy="160.5" r="5" fill="black"></circle><circle cx="528.2" cy="160.5" r="5" fill="black"></circle><circle cx="539.8" cy="160.5" r="5" fill="black"></circle><circle cx="551.4" cy="160.5" r="5" fill="black"></circle><line x1="416" y1="135" x2="474" y2="135"></line><line x1="416" y1="159.5" x2="474" y2="159.5"></line><rect x="416" y="134" width="58" height="26.5" fill="white" stroke="black"></rect><text x="421" y="147.25" dominant-baseline="middle">li</text><circle cx="445" cy="134" r="5" fill="black"></circle><circle cx="427.6" cy="160.5" r="5" fill="black"></circle><circle cx="439.2" cy="160.5" r="5" fill="black"></circle><circle cx="450.8" cy="160.5" r="5" fill="black"></circle><circle cx="462.4" cy="160.5" r="5" fill="black"></circle><line x1="338.5" y1="135" x2="396.5" y2="135"></line><line x1="338.5" y1="159.5" x2="396.5" y2="159.5"></line><rect x="338.5" y="134" width="58" height="26.5" fill="white" stroke="black"></rect><text x="343.5" y="147.25" dominant-baseline="middle">ul ol</text><circle cx="367.5" cy="134" r="5" fill="black"></circle><circle cx="350.1" cy="160.5" r="5" fill="black"></circle><circle cx="361.7" cy="160.5" r="5" fill="black"></circle><circle cx="373.3" cy="160.5" r="5" fill="black"></circle><circle cx="384.9" cy="160.5" r="5" fill="black"></circle><line x1="592" y1="240" x2="650" y2="240"></line><line x1="592" y1="264.5" x2="650" y2="264.5"></line><rect x="592" y="239" width="58" height="26.5" fill="white" stroke="black"></rect><text x="597" y="252.25" dominant-baseline="middle">h6</text><circle cx="621" cy="239" r="5" fill="black"></circle><circle cx="603.6" cy="265.5" r="5" fill="black"></circle><circle cx="615.2" cy="265.5" r="5" fill="black"></circle><circle cx="626.8" cy="265.5" r="5" fill="black"></circle><circle cx="638.4" cy="265.5" r="5" fill="black"></circle><line x1="508" y1="246" x2="566" y2="246"></line><line x1="508" y1="270.5" x2="566" y2="270.5"></line><rect x="508" y="245" width="58" height="26.5" fill="white" stroke="black"></rect><text x="513" y="258.25" dominant-baseline="middle">text</text><circle cx="537" cy="245" r="5" fill="black"></circle><circle cx="519.6" cy="271.5" r="5" fill="black"></circle><circle cx="531.2" cy="271.5" r="5" fill="black"></circle><circle cx="542.8" cy="271.5" r="5" fill="black"></circle><circle cx="554.4" cy="271.5" r="5" fill="black"></circle><line x1="419" y1="246.25" x2="477" y2="246.25"></line><line x1="419" y1="270.75" x2="477" y2="270.75"></line><rect x="419" y="245.25" width="58" height="26.5" fill="white" stroke="black"></rect><text x="424" y="258.5" dominant-baseline="middle">h5</text><circle cx="448" cy="245.25" r="5" fill="black"></circle><circle cx="430.6" cy="271.75" r="5" fill="black"></circle><circle cx="442.2" cy="271.75" r="5" fill="black"></circle><circle cx="453.8" cy="271.75" r="5" fill="black"></circle><circle cx="465.4" cy="271.75" r="5" fill="black"></circle><line x1="341.5" y1="246.25" x2="399.5" y2="246.25"></line><line x1="341.5" y1="270.75" x2="399.5" y2="270.75"></line><rect x="341.5" y="245.25" width="58" height="26.5" fill="white" stroke="black"></rect><text x="346.5" y="258.5" dominant-baseline="middle">h4</text><circle cx="370.5" cy="245.25" r="5" fill="black"></circle><circle cx="353.1" cy="271.75" r="5" fill="black"></circle><circle cx="364.7" cy="271.75" r="5" fill="black"></circle><circle cx="376.3" cy="271.75" r="5" fill="black"></circle><circle cx="387.9" cy="271.75" r="5" fill="black"></circle><line x1="589" y1="352" x2="647" y2="352"></line><line x1="589" y1="376.5" x2="647" y2="376.5"></line><rect x="589" y="351" width="58" height="26.5" fill="white" stroke="black"></rect><text x="594" y="364.25" dominant-baseline="middle">h3</text><circle cx="618" cy="351" r="5" fill="black"></circle><circle cx="600.6" cy="377.5" r="5" fill="black"></circle><circle cx="612.2" cy="377.5" r="5" fill="black"></circle><circle cx="623.8" cy="377.5" r="5" fill="black"></circle><circle cx="635.4" cy="377.5" r="5" fill="black"></circle><line x1="505" y1="352" x2="563" y2="352"></line><line x1="505" y1="376.5" x2="563" y2="376.5"></line><rect x="505" y="351" width="58" height="26.5" fill="white" stroke="black"></rect><text x="510" y="364.25" dominant-baseline="middle">img</text><circle cx="534" cy="351" r="5" fill="black"></circle><circle cx="516.6" cy="377.5" r="5" fill="black"></circle><circle cx="528.2" cy="377.5" r="5" fill="black"></circle><circle cx="539.8" cy="377.5" r="5" fill="black"></circle><circle cx="551.4" cy="377.5" r="5" fill="black"></circle><line x1="416" y1="352" x2="474" y2="352"></line><line x1="416" y1="376.5" x2="474" y2="376.5"></line><rect x="416" y="351" width="58" height="26.5" fill="white" stroke="black"></rect><text x="421" y="364.25" dominant-baseline="middle">section article</text><circle cx="445" cy="351" r="5" fill="black"></circle><circle cx="427.6" cy="377.5" r="5" fill="black"></circle><circle cx="439.2" cy="377.5" r="5" fill="black"></circle><circle cx="450.8" cy="377.5" r="5" fill="black"></circle><circle cx="462.4" cy="377.5" r="5" fill="black"></circle><line x1="338.5" y1="352" x2="396.5" y2="352"></line><line x1="338.5" y1="376.5" x2="396.5" y2="376.5"></line><rect x="338.5" y="351" width="58" height="26.5" fill="white" stroke="black"></rect><text x="343.5" y="364.25" dominant-baseline="middle">h1 h2</text><circle cx="367.5" cy="351" r="5" fill="black"></circle><circle cx="350.1" cy="377.5" r="5" fill="black"></circle><circle cx="361.7" cy="377.5" r="5" fill="black"></circle><circle cx="373.3" cy="377.5" r="5" fill="black"></circle><circle cx="384.9" cy="377.5" r="5" fill="black"></circle><line x1="191" y1="557" x2="299" y2="557"></line><line x1="191" y1="577" x2="299" y2="577"></line><rect x="191" y="556" width="108" height="22" fill="white" stroke="black"></rect><text x="196" y="567" dominant-baseline="middle">noteout</text><circle cx="218" cy="556" r="5" fill="black"></circle><circle cx="245" cy="556" r="5" fill="black"></circle><circle cx="272" cy="556" r="5" fill="black"></circle><line x1="67" y1="419" x2="113" y2="419"></line><line x1="67" y1="439" x2="113" y2="439"></line><rect x="67" y="418" width="46" height="22" fill="white" stroke="black"></rect><text x="72" y="429" dominant-baseline="middle">route 1</text><circle cx="82.33333333333333" cy="418" r="5" fill="black"></circle><circle cx="97.66666666666667" cy="418" r="5" fill="black"></circle><circle cx="82.33333333333333" cy="440" r="5" fill="black"></circle><circle cx="97.66666666666667" cy="440" r="5" fill="black"></circle><line x1="67" y1="389" x2="133" y2="389"></line><line x1="67" y1="409" x2="133" y2="409"></line><rect x="67" y="388" width="66" height="22" fill="white" stroke="black"></rect><text x="72" y="399" dominant-baseline="middle">route node</text><circle cx="89" cy="388" r="5" fill="black"></circle><circle cx="111" cy="388" r="5" fill="black"></circle><circle cx="89" cy="410" r="5" fill="black"></circle><circle cx="111" cy="410" r="5" fill="black"></circle><line x1="67" y1="357" x2="156" y2="357"></line><line x1="67" y1="377" x2="156" y2="377"></line><rect x="67" y="356" width="89" height="22" fill="white" stroke="black"></rect><text x="72" y="367" dominant-baseline="middle">r from_browser</text><circle cx="111.5" cy="378" r="5" fill="black"></circle><rect x="0" y="169" width="150" height="20" fill="white" stroke="black" stroke-dasharray="5,5"></rect><text x="5" y="179" dominant-baseline="middle">Device size vertical limit</text><circle cx="75" cy="169" r="5" fill="black"></circle><path d="M745.6666666666666 623 L746.6666666666666 628" fill="none" stroke="black"></path><path d="M742 676 L289.5 524" fill="none" stroke="black"></path><path d="M430.6 271.75 L435.6666666666667 281" fill="none" stroke="black"></path><path d="M353.1 271.75 L358.1666666666667 281" fill="none" stroke="black"></path><path d="M605.6 160.5 L611.6666666666666 168" fill="none" stroke="black"></path><path d="M516.6 160.5 L524.6666666666666 168" fill="none" stroke="black"></path><path d="M427.6 160.5 L435.6666666666667 168" fill="none" stroke="black"></path><path d="M350.1 160.5 L358.1666666666667 168" fill="none" stroke="black"></path><path d="M604.6 42.5 L612.6666666666666 50.5" fill="none" stroke="black"></path><path d="M524.6 42.5 L525.6666666666666 50.5" fill="none" stroke="black"></path><path d="M431.6 42.5 L436.6666666666667 50.5" fill="none" stroke="black"></path><path d="M351.1 42.5 L359.1666666666667 50.5" fill="none" stroke="black"></path><path d="M786.6666666666666 585 L741.6666666666666 575" fill="none" stroke="black"></path><path d="M322.33333333333337 546 L245 556" fill="none" stroke="black"></path><path d="M256.6666666666667 546 L218 556" fill="none" stroke="black"></path><path d="M536.5 433 L514.5 441.5 L200 441.5 L226.5 452" fill="none" stroke="black"></path><path d="M620.5 433 L598.5 439.5 L200 439.5 L226.5 452" fill="none" stroke="black"></path><path d="M631 330 L609 340.5 L200 340.5 L226.5 452" fill="none" stroke="black"></path><path d="M542 330 L520 339.5 L200 339.5 L226.5 452" fill="none" stroke="black"></path><path d="M453 330 L431 341.5 L200 341.5 L226.5 452" fill="none" stroke="black"></path><path d="M375.5 330 L353.5 341.5 L200 341.5 L226.5 452" fill="none" stroke="black"></path><path d="M626 219 L601.5 234 L200 234 L226.5 452" fill="none" stroke="black"></path><path d="M111.5 378 L89 388" fill="none" stroke="black"></path><path d="M537.5 219 L512.5 236 L200 236 L226.5 452" fill="none" stroke="black"></path><path d="M445.5 219 L423.5 235 L200 235 L226.5 452" fill="none" stroke="black"></path><path d="M368 219 L346 234 L200 234 L226.5 452" fill="none" stroke="black"></path><path d="M629.5 100 L604.5 124.5 L200 124.5 L226.5 452" fill="none" stroke="black"></path><path d="M540.5 100 L515.5 124.5 L200 124.5 L226.5 452" fill="none" stroke="black"></path><path d="M451.5 100 L426.5 125.5 L200 125.5 L226.5 452" fill="none" stroke="black"></path><path d="M374 100 L349 123.5 L200 123.5 L226.5 452" fill="none" stroke="black"></path><path d="M226.5 474 L242.5 489" fill="none" stroke="black"></path><path d="M90.66666666666666 611 L359.3333333333333 614" fill="none" stroke="black"></path><path d="M712.5 490 L731.8333333333334 546" fill="none" stroke="black"></path><path d="M242.5 511 L240.25 524" fill="none" stroke="black"></path><path d="M242.5 511 L146.33333333333334 498" fill="none" stroke="black"></path><path d="M746.6666666666666 650 L735.3333333333334 654" fill="none" stroke="black"></path><path d="M736.75 597 L745.6666666666666 601" fill="none" stroke="black"></path><path d="M736.75 568 L731.8333333333334 575" fill="none" stroke="black"></path><path d="M62 580 L79.5 589" fill="none" stroke="black"></path><path d="M359.1666666666667 72.5 L374 78" fill="none" stroke="black"></path><path d="M436.6666666666667 72.5 L451.5 78" fill="none" stroke="black"></path><path d="M525.6666666666666 72.5 L540.5 78" fill="none" stroke="black"></path><path d="M612.6666666666666 72.5 L629.5 78" fill="none" stroke="black"></path><path d="M370 433 L348 439.5 L200 439.5 L226.5 452" fill="none" stroke="black"></path><path d="M350.1 377.5 L358.1666666666667 382" fill="none" stroke="black"></path><path d="M611.6666666666666 190 L626 197" fill="none" stroke="black"></path><path d="M524.6666666666666 190 L537.5 197" fill="none" stroke="black"></path><path d="M89 410 L82.33333333333333 418" fill="none" stroke="black"></path><path d="M435.6666666666667 190 L445.5 197" fill="none" stroke="black"></path><path d="M358.1666666666667 190 L368 197" fill="none" stroke="black"></path><path d="M611.6666666666666 303 L631 308" fill="none" stroke="black"></path><path d="M524.6666666666666 303 L542 308" fill="none" stroke="black"></path><path d="M435.6666666666667 303 L453 308" fill="none" stroke="black"></path><path d="M358.1666666666667 303 L375.5 308" fill="none" stroke="black"></path><path d="M611.6666666666666 404 L620.5 411" fill="none" stroke="black"></path><path d="M524.6666666666666 404 L536.5 411" fill="none" stroke="black"></path><path d="M435.6666666666667 404 L447.5 411" fill="none" stroke="black"></path><path d="M358.1666666666667 404 L370 411" fill="none" stroke="black"></path><path d="M447.5 433 L425.5 439.5 L200 439.5 L226.5 452" fill="none" stroke="black"></path><path d="M298 433 L242.5 489" fill="none" stroke="black"></path><path d="M108.5 469 L242.5 489" fill="none" stroke="black"></path><path d="M108.5 469 L53.333333333333336 479" fill="none" stroke="black"></path><path d="M82.33333333333333 440 L712.5 468" fill="none" stroke="black"></path><path d="M82.33333333333333 440 L108.5 447" fill="none" stroke="black"></path><path d="M427.6 377.5 L435.6666666666667 382" fill="none" stroke="black"></path><path d="M516.6 377.5 L524.6666666666666 382" fill="none" stroke="black"></path><path d="M600.6 377.5 L611.6666666666666 382" fill="none" stroke="black"></path><path d="M603.6 265.5 L611.6666666666666 281" fill="none" stroke="black"></path><path d="M519.6 271.5 L524.6666666666666 281" fill="none" stroke="black"></path></svg>